. 
  
http://www.torrentday.com/        :     The Hottest Private Tracker On The Net!!!


               www . TorrentDay . Com 
(((((((((((((= Enjoy No RAR releases =))))))))))))))))))))


...................................NFO:....................................


[b]Date Night 2010 DVDRip XviD AC3-LEGi0N[/center]                            

[img]http://leetleech.org/images/48874973695367351744.png[/img][b]
[color=red]General[/color]
Format:AVI 
File Size: 1.37 GiB
Duration: 1h 27mn
Overall bit rate: 2 233 Kbps
IMDB Rating: 6.6/10   16 626 votes
Genre: Comedy : Crime : Romance 
IMDb Link: http://www.imdb.com/title/tt1279935/
Source: NTSC DVDR-PrisM  

[color=red]Video[/color]
Format: MPEG-4 Visual
Format profile: Advanced Simple@L5
Format settings, BVOP: Yes
Format settings, QPel: No         
Format settings, GMC:  No warpoints
Format settings, Matrix: Default (H.263)
Muxing mode: Packed bitstream
Codec ID: XVID
Bit rate: 1 776Kbps
Width: 720 pixels
Height: 304 pixels
DAR: 2.35:1
Frame rate 23.976 fps
Resolution: 8 bits
Colorimetry: 4:2:0
Scan Type: Progressive
Bits/(Pixel*Frame): 0.338
Stream size: 1 09 GiB (80%)

[color=red]Audio[/color]
Format: AC-3
Bit rate mode: Constant
Bit rate: 448 Kbps
Channel(s): 6 channels
Sampling rate: 48.0 KHz
Stream size: 281 MiB (20%) 

[img]http://leetleech.org/images/89524873606771859129.png[/img]
 In New York City, a case of mistaken identity turns a bored married
couple's attempt at a glamorous and romantic evening into something
more thrilling and dangerous.      
[color=red]Tagline:[/color]
ONE ORDINARY COUPLE. ONE LITTLE WHITE LIE.                 

[img]http://leetleech.org/images/84434050717770922575.png[/img]
Steve Carell   ...  Phil Foster             
Tina Fey       ...  Claire Foster   
Mark Wahlberg  ...  Holbrooke      
Taraji Henson  ...  Detective Arroyo
Jimmi Simpson  ...  Armstrong
Common         ...  Collins           
William Fichtner..  DA Frank Crenshaw

[color=red]GREETZ[/color]
Noir | xXTHORNXx | bigimac | LUSi |

kempas | KaN1vE | mike160 | skillz |

Lungbuster | Sheikh | DiLLoN1369  |

0B5C3N3 | FLAWL3SS | AND ALL P2P![/b]
[color=red]SAMPLE INCLUDED[/color]
[img]http://leetleech.org/images/95521316153253938506.png[/img] 
[img]http://i32.timypic.com/5uld8z.jpg[/img] 
[center][img]http://leetleech.org/images/12755021538703799215.png[/img][/center]